<svg xmlns="http://www.w3.org/2000/svg" viewBox="0 0 64 64"><path d="M46 7a5.993 5.993 0 0 0-10-4.463 5.973 5.973 0 0 0-8 0 5.995 5.995 0 1 0-7 9.654V18h22v-5.809A5.992 5.992 0 0 0 46 7z" style="fill:#e6ecff"/><path style="fill:#494a59" d="M40 20h4v6h-4zM20 20h4v6h-4z"/><path d="M46 27v3a2.006 2.006 0 0 1-2 2h-4.52a8.8 8.8 0 0 0 .52-3v-4h4a2.006 2.006 0 0 1 2 2zM24.52 32H20a2.006 2.006 0 0 1-2-2v-3a2.006 2.006 0 0 1 2-2h4v4a8.8 8.8 0 0 0 .52 3zM39 33.64v9.22L36 45v3l-4 2.46L28 48v-3l-3-2.14v-9.22a8.976 8.976 0 0 0 13.36.72 8.669 8.669 0 0 0 .64-.72z" style="fill:#eac2b9"/><path d="M52.8 47.57 46 46l-3-7-4 2.86L36 44v3l-4 2.46L28 47v-3l-3-2.14L21 39l-3 7-6.8 1.57A8 8 0 0 0 5 55.36V63h54v-7.64a8 8 0 0 0-6.2-7.79z" style="fill:#d0dbf7"/><path d="M59 55.36V63H23v-5.76a4.01 4.01 0 0 1 1.9-3.41l7.1-4.37L36 47v-3l3-2.14L43 39l3 7 6.8 1.57a8 8 0 0 1 6.2 7.79z" style="fill:#e6ecff"/><path d="M50.75 56v7h-1.5v-7a.75.75 0 0 1 1.5 0z" style="fill:#d0dbf7"/><path d="M14.75 56v7h-1.5v-7a.75.75 0 0 1 1.5 0z" style="fill:#bbcaea"/><path d="M23 21v8a9 9 0 0 0 9 9 9 9 0 0 0 9-9v-8z" style="fill:#ffddd4"/><rect x="18" y="17" width="28" height="4" rx=".75" ry=".75" style="fill:#d0dbf7"/><path d="M28 2.54a6.122 6.122 0 0 0-1.62 2.34.75.75 0 0 1-1.4-.54 7.606 7.606 0 0 1 1.77-2.67 6.357 6.357 0 0 1 1.25.87zM38.59 5.31a.646.646 0 0 1-.27.05.753.753 0 0 1-.7-.48A6.122 6.122 0 0 0 36 2.54a6.357 6.357 0 0 1 1.25-.87 7.606 7.606 0 0 1 1.77 2.67.746.746 0 0 1-.43.97zM43 12.19v1.68a7.505 7.505 0 0 1-3 .63.75.75 0 0 1 0-1.5 5.974 5.974 0 0 0 3-.81zM24.75 13.75a.749.749 0 0 1-.75.75 7.505 7.505 0 0 1-3-.63v-1.68a5.974 5.974 0 0 0 3 .81.755.755 0 0 1 .75.75zM43 39l-4 2.86V37a4.829 4.829 0 0 1 3.41 1.41z" style="fill:#d0dbf7"/><path d="M25 37v4.86L21 39l.59-.59A4.829 4.829 0 0 1 25 37z" style="fill:#bbcaea"/><circle cx="26" cy="57" r="1" style="fill:#d0dbf7"/><circle cx="26" cy="60.5" r="1" style="fill:#d0dbf7"/></svg>